<svg version="1.1" id="Layer_1" xmlns="http://www.w3.org/2000/svg" xmlns:xlink="http://www.w3.org/1999/xlink" x="0px" y="0px"
	 width="100%" viewBox="0 0 512 513" enable-background="new 0 0 512 513" xml:space="preserve">
<path fill="#FFFFFF" opacity="1.000000" stroke="none" 
	d="
M208.980896,513.557007 
	C141.196167,514.000000 73.392281,513.969727 5.588641,514.084900 
	C2.008455,514.091003 0.889868,513.544434 0.892800,509.592316 
	C1.017511,341.498871 1.011754,173.405334 0.917421,5.311852 
	C0.915495,1.880074 1.403906,0.883044 5.184667,0.888798 
	C98.477180,1.030798 191.769958,1.000000 285.531342,1.000000 
	C285.277618,4.735590 281.902374,4.494187 279.382050,5.088574 
	C263.609924,8.808173 249.020782,15.192491 235.936676,24.702856 
	C211.399750,42.537834 196.670776,66.839981 189.798584,96.134132 
	C186.743118,109.158676 185.432098,122.387672 185.460419,135.758652 
	C185.479813,144.921173 185.466827,154.083755 185.463333,163.246323 
	C185.459045,174.457733 185.456970,174.457275 173.998154,174.464157 
	C162.336731,174.471146 150.674438,174.373947 139.014206,174.505234 
	C132.559540,174.577911 126.490074,176.022705 121.345474,180.312134 
	C115.418610,185.253784 112.678917,191.810684 112.595421,199.223190 
	C112.304588,225.042282 112.155128,250.869888 112.618011,276.684387 
	C112.903542,292.607941 122.604729,301.501709 138.378677,301.531128 
	C151.206238,301.555023 164.033951,301.502777 176.861404,301.549866 
	C184.684113,301.578583 185.447525,302.324585 185.451035,310.137848 
	C185.477280,368.445038 185.496353,426.752289 185.426300,485.059387 
	C185.415924,493.690308 187.613495,501.166412 194.588364,506.748383 
	C197.498718,509.077484 200.665771,510.812714 204.403992,511.400513 
	C206.027283,511.655731 207.767471,511.682678 208.980896,513.557007 
z"/>
<path fill="#FFFFFF" opacity="1.000000" stroke="none" 
	d="
M387.993164,1.463919 
	C428.479401,1.000000 468.958923,1.031514 509.438049,0.931592 
	C512.242004,0.924671 513.096436,1.274641 513.094421,4.434742 
	C512.987671,173.182175 512.983398,341.929718 513.115417,510.677124 
	C513.118103,514.158813 511.824463,514.039551 509.326294,514.037903 
	C436.529999,513.991028 363.733643,514.000000 290.468658,514.000000 
	C290.357758,511.373260 292.582581,511.797150 294.240234,511.547913 
	C307.050079,509.622070 314.967377,500.803070 315.443268,487.805725 
	C315.516418,485.807343 315.478363,483.806671 315.478394,481.807037 
	C315.479340,425.315887 315.476166,368.824707 315.481445,312.333557 
	C315.482452,301.710358 315.709473,301.488892 326.418915,301.481598 
	C342.083130,301.470947 357.769684,300.960388 373.404999,301.630310 
	C387.740570,302.244568 399.133728,290.273315 398.704102,276.331329 
	C397.914032,250.693054 398.110474,225.005203 398.651886,199.353989 
	C398.882751,188.415558 390.716827,176.479996 378.091064,175.053192 
	C373.926270,174.582535 369.783234,174.538239 365.623016,174.529816 
	C351.625275,174.501465 337.627228,174.571259 323.629730,174.496323 
	C316.485840,174.458069 315.554169,173.507553 315.499969,166.393112 
	C315.432739,157.561615 315.478821,148.729340 315.484680,139.897415 
	C315.486542,137.047531 315.929718,134.264679 316.476257,131.475861 
	C317.272156,127.414848 319.729553,125.008362 323.628815,124.006210 
	C327.843536,122.922989 332.134399,122.457230 336.496307,122.467041 
	C349.994110,122.497406 363.492432,122.547089 376.989838,122.457680 
	C391.673248,122.360413 401.415527,112.636635 401.458832,97.986649 
	C401.528809,74.323875 401.271332,50.658092 401.579651,26.999134 
	C401.703491,17.498032 398.556305,10.137191 390.757324,4.752388 
	C389.661499,3.995759 388.593292,3.179448 387.993164,1.463919 
z"/>
<path fill="#000000" opacity="1.000000" stroke="none" 
	d="
M387.531342,1.000000 
	C394.325439,5.165170 400.303345,9.508890 402.284149,17.580557 
	C402.679932,19.193344 402.965973,20.743382 402.968628,22.319004 
	C403.012665,48.475571 402.956482,74.632339 403.019470,100.788834 
	C403.048340,112.783974 391.102570,124.030556 379.449860,124.007378 
	C364.289032,123.977219 349.127655,123.934845 333.967651,124.049927 
	C330.560730,124.075775 327.118225,124.515808 323.763092,125.144196 
	C317.730469,126.274033 317.323486,131.603241 317.152588,135.979156 
	C316.704346,147.457245 317.096619,158.965714 316.943939,170.459290 
	C316.896606,174.023514 319.254486,172.964432 320.970306,172.969345 
	C338.463440,173.019455 355.966583,172.639984 373.446991,173.114700 
	C387.252472,173.489609 393.715210,178.092316 399.539398,190.997864 
	C400.280884,192.640930 399.969635,194.249756 399.971863,195.860168 
	C400.010864,223.849380 399.665222,251.844803 400.177704,279.824677 
	C400.362488,289.912567 388.763885,303.255096 376.982941,303.075043 
	C358.494354,302.792389 339.996887,303.118073 321.506500,302.901184 
	C317.769165,302.857330 316.897888,303.770172 316.906342,307.504089 
	C317.039673,366.481201 316.649109,425.462219 317.244507,484.433624 
	C317.395020,499.338959 307.203766,514.729431 290.154236,513.600708 
	C288.611115,514.000000 287.222198,514.000000 285.416656,514.000000 
	C284.131439,513.326416 283.106049,513.488892 282.124542,513.490479 
	C260.698792,513.524963 239.272842,513.398193 217.423599,513.774658 
	C214.629440,514.000000 212.258896,514.000000 209.444168,514.000000 
	C204.590897,512.036865 199.619553,512.457703 195.296646,509.223541 
	C188.053848,503.804962 184.065338,497.093292 184.051025,488.285065 
	C183.953537,428.294281 183.952133,368.303192 184.101913,308.312622 
	C184.112503,304.071686 183.327438,302.761841 178.798325,302.869720 
	C164.142181,303.218750 149.470840,302.865204 134.808670,303.047852 
	C125.195686,303.167603 113.612213,294.549805 111.861366,283.123383 
	C111.180351,278.678925 111.022873,274.307617 111.016144,269.885773 
	C110.981384,247.055954 111.104248,224.225433 110.965942,201.396393 
	C110.861458,184.150238 122.121376,172.740067 139.608932,172.966339 
	C152.771393,173.136627 165.943542,172.780869 179.099289,173.123627 
	C183.468781,173.237473 184.175690,171.855499 184.099243,167.884552 
	C183.839523,154.391586 183.529083,140.870255 184.109482,127.397301 
	C184.998505,106.759949 188.861160,86.658813 198.032043,67.922424 
	C209.997833,43.476021 228.052338,25.037157 252.596695,13.005058 
	C261.882324,8.453068 271.650513,5.433096 281.652039,3.107092 
	C283.112061,2.767545 284.330444,1.971077 285.884094,1.369147 
	C319.687561,1.000000 353.375122,1.000000 387.531342,1.000000 
z"/>
<path fill="#FFFFFF" opacity="1.000000" stroke="none" 
	d="
M217.468658,514.000000 
	C217.230774,512.874023 218.129578,513.005737 218.925308,513.007690 
	C240.838730,513.061646 262.752136,513.122559 284.832764,513.591187 
	C262.645782,514.000000 240.291550,514.000000 217.468658,514.000000 
z"/>
<path fill="#FFFFFF" opacity="1.000000" stroke="none" 
	d="
M369.000000,230.000000 
	C369.000000,242.997391 368.881836,255.496674 369.080261,267.990906 
	C369.132050,271.252167 368.262665,272.106201 364.996246,272.079315 
	C345.501617,271.919067 325.995850,272.365051 306.512238,271.875336 
	C292.867493,271.532410 285.732086,280.641479 285.809296,292.302612 
	C286.216248,353.787109 285.944824,415.275879 286.115662,476.762573 
	C286.127930,481.182220 285.065521,482.170380 280.725220,482.115082 
	C260.399414,481.856049 240.067245,481.883514 219.740479,482.101013 
	C215.802475,482.143127 214.901337,481.091064 214.909286,477.228607 
	C215.037643,414.908539 214.867538,352.587494 215.147766,290.268433 
	C215.188187,281.278992 207.553864,271.742645 196.606689,271.925934 
	C179.781586,272.207611 162.947723,271.930176 146.118958,272.064026 
	C143.068710,272.088287 141.874069,271.590393 141.907288,268.106659 
	C142.097885,248.112640 142.109360,228.114761 141.901855,208.121078 
	C141.863327,204.407776 143.100510,203.891739 146.391479,203.922958 
	C163.719650,204.087433 181.050186,204.007706 198.379913,203.996933 
	C207.864243,203.991043 214.986282,196.952515 214.995178,187.556046 
	C215.011902,169.893082 214.967255,152.229996 215.008514,134.567108 
	C215.056931,113.839241 218.923065,93.900116 229.142075,75.727821 
	C236.497894,62.647091 246.763733,52.000126 259.979858,44.520714 
	C276.855316,34.970364 295.009460,30.666906 314.401855,30.945562 
	C332.227783,31.201712 350.060822,31.067806 367.889435,30.935015 
	C370.954590,30.912184 372.130493,31.433802 372.092255,34.901855 
	C371.893921,52.895924 371.878906,70.894821 372.099182,88.888374 
	C372.144836,92.617722 370.877380,93.130394 367.598358,93.077133 
	C355.604034,92.882248 343.590149,92.632851 331.611145,93.103645 
	C319.722290,93.570877 307.980560,95.594032 298.706299,103.929260 
	C291.461426,110.440567 287.916321,118.916466 286.929138,128.705536 
	C284.888580,148.940704 286.412445,169.201569 286.106598,189.445312 
	C285.993835,196.909286 294.255463,204.134094 302.008881,204.064148 
	C322.836151,203.876266 343.667328,204.106537 364.494293,203.901566 
	C368.233856,203.864777 369.278900,204.754044 369.096954,208.510651 
	C368.758759,215.492279 369.000000,222.501984 369.000000,230.000000 
z"/>
</svg>